<?xml version="1.0" encoding="UTF-8" standalone="no"?>
<!DOCTYPE svg PUBLIC "-//W3C//DTD SVG 1.1//EN"
 "http://www.w3.org/Graphics/SVG/1.1/DTD/svg11.dtd">
<!-- Generated by graphviz version 2.30.1 (20180420.1509)
 -->
<!-- Title: snakemake_dag Pages: 1 -->
<svg width="497pt" height="476pt"
 viewBox="0.00 0.00 497.38 476.00" xmlns="http://www.w3.org/2000/svg" xmlns:xlink="http://www.w3.org/1999/xlink">
<g id="graph0" class="graph" transform="scale(1 1) rotate(0) translate(4 472)">
<title>snakemake_dag</title>
<polygon fill="white" stroke="white" points="-4,5 -4,-472 494.378,-472 494.378,5 -4,5"/>
<!-- 0 -->
<g id="node1" class="node"><title>0</title>
<path fill="none" stroke="#56d89a" stroke-width="2" d="M277.378,-36C277.378,-36 247.378,-36 247.378,-36 241.378,-36 235.378,-30 235.378,-24 235.378,-24 235.378,-12 235.378,-12 235.378,-6 241.378,-0 247.378,-0 247.378,-0 277.378,-0 277.378,-0 283.378,-0 289.378,-6 289.378,-12 289.378,-12 289.378,-24 289.378,-24 289.378,-30 283.378,-36 277.378,-36"/>
<text text-anchor="middle" x="262.378" y="-15.5" font-family="sans" font-size="10.00">all</text>
</g>
<!-- 1 -->
<g id="node2" class="node"><title>1</title>
<path fill="none" stroke="#d8b456" stroke-width="2" d="M181.378,-324C181.378,-324 151.378,-324 151.378,-324 145.378,-324 139.378,-318 139.378,-312 139.378,-312 139.378,-300 139.378,-300 139.378,-294 145.378,-288 151.378,-288 151.378,-288 181.378,-288 181.378,-288 187.378,-288 193.378,-294 193.378,-300 193.378,-300 193.378,-312 193.378,-312 193.378,-318 187.378,-324 181.378,-324"/>
<text text-anchor="middle" x="166.378" y="-303.5" font-family="sans" font-size="10.00">SPAdes</text>
</g>
<!-- 1&#45;&gt;0 -->
<g id="edge1" class="edge"><title>1&#45;&gt;0</title>
<path fill="none" stroke="grey" stroke-width="2" d="M158.965,-287.848C147.162,-258.165 126.754,-195.456 140.378,-144 149.803,-108.402 156.155,-98.8304 181.378,-72 194.151,-58.4126 211.071,-46.6461 226.141,-37.6749"/>
<polygon fill="grey" stroke="grey" points="228.301,-40.4714 235.233,-32.4591 224.817,-34.3996 228.301,-40.4714"/>
</g>
<!-- 2 -->
<g id="node3" class="node"><title>2</title>
<path fill="none" stroke="#d85656" stroke-width="2" d="M191.378,-180C191.378,-180 161.378,-180 161.378,-180 155.378,-180 149.378,-174 149.378,-168 149.378,-168 149.378,-156 149.378,-156 149.378,-150 155.378,-144 161.378,-144 161.378,-144 191.378,-144 191.378,-144 197.378,-144 203.378,-150 203.378,-156 203.378,-156 203.378,-168 203.378,-168 203.378,-174 197.378,-180 191.378,-180"/>
<text text-anchor="middle" x="176.378" y="-159.5" font-family="sans" font-size="10.00">quast</text>
</g>
<!-- 1&#45;&gt;2 -->
<g id="edge13" class="edge"><title>1&#45;&gt;2</title>
<path fill="none" stroke="grey" stroke-width="2" d="M167.584,-287.871C169.289,-263.67 172.42,-219.211 174.449,-190.393"/>
<polygon fill="grey" stroke="grey" points="177.956,-190.41 175.168,-180.189 170.974,-189.919 177.956,-190.41"/>
</g>
<!-- 4 -->
<g id="node5" class="node"><title>4</title>
<path fill="none" stroke="#9fd856" stroke-width="2" d="M243.628,-252C243.628,-252 207.128,-252 207.128,-252 201.128,-252 195.128,-246 195.128,-240 195.128,-240 195.128,-228 195.128,-228 195.128,-222 201.128,-216 207.128,-216 207.128,-216 243.628,-216 243.628,-216 249.628,-216 255.628,-222 255.628,-228 255.628,-228 255.628,-240 255.628,-240 255.628,-246 249.628,-252 243.628,-252"/>
<text text-anchor="middle" x="225.378" y="-231.5" font-family="sans" font-size="10.00">coverage</text>
</g>
<!-- 1&#45;&gt;4 -->
<g id="edge16" class="edge"><title>1&#45;&gt;4</title>
<path fill="none" stroke="grey" stroke-width="2" d="M180.962,-287.697C188.036,-279.305 196.662,-269.07 204.424,-259.861"/>
<polygon fill="grey" stroke="grey" points="207.193,-262.006 210.962,-252.104 201.841,-257.495 207.193,-262.006"/>
</g>
<!-- 8 -->
<g id="node9" class="node"><title>8</title>
<path fill="none" stroke="#56d8c9" stroke-width="2" d="M101.628,-108C101.628,-108 43.1281,-108 43.1281,-108 37.1281,-108 31.1281,-102 31.1281,-96 31.1281,-96 31.1281,-84 31.1281,-84 31.1281,-78 37.1281,-72 43.1281,-72 43.1281,-72 101.628,-72 101.628,-72 107.628,-72 113.628,-78 113.628,-84 113.628,-84 113.628,-96 113.628,-96 113.628,-102 107.628,-108 101.628,-108"/>
<text text-anchor="middle" x="72.3781" y="-87.5" font-family="sans" font-size="10.00">kraken_contig</text>
</g>
<!-- 1&#45;&gt;8 -->
<g id="edge18" class="edge"><title>1&#45;&gt;8</title>
<path fill="none" stroke="grey" stroke-width="2" d="M140.846,-287.881C128.939,-278.614 115.612,-266.166 107.378,-252 82.7351,-209.601 75.4015,-151.782 73.2454,-118.213"/>
<polygon fill="grey" stroke="grey" points="76.74,-118.016 72.7119,-108.216 69.7499,-118.389 76.74,-118.016"/>
</g>
<!-- 2&#45;&gt;0 -->
<g id="edge2" class="edge"><title>2&#45;&gt;0</title>
<path fill="none" stroke="grey" stroke-width="2" d="M177.71,-143.703C179.845,-124.812 185.343,-94.2802 199.378,-72 206.531,-60.6442 216.913,-50.4885 227.192,-42.1802"/>
<polygon fill="grey" stroke="grey" points="229.544,-44.7875 235.35,-35.9255 225.285,-39.2323 229.544,-44.7875"/>
</g>
<!-- 10 -->
<g id="node11" class="node"><title>10</title>
<path fill="none" stroke="#56b1d8" stroke-width="2" d="M250.378,-108C250.378,-108 220.378,-108 220.378,-108 214.378,-108 208.378,-102 208.378,-96 208.378,-96 208.378,-84 208.378,-84 208.378,-78 214.378,-72 220.378,-72 220.378,-72 250.378,-72 250.378,-72 256.378,-72 262.378,-78 262.378,-84 262.378,-84 262.378,-96 262.378,-96 262.378,-102 256.378,-108 250.378,-108"/>
<text text-anchor="middle" x="235.378" y="-87.5" font-family="sans" font-size="10.00">multiqc</text>
</g>
<!-- 2&#45;&gt;10 -->
<g id="edge20" class="edge"><title>2&#45;&gt;10</title>
<path fill="none" stroke="grey" stroke-width="2" d="M190.962,-143.697C198.036,-135.305 206.662,-125.07 214.424,-115.861"/>
<polygon fill="grey" stroke="grey" points="217.193,-118.006 220.962,-108.104 211.841,-113.495 217.193,-118.006"/>
</g>
<!-- 3 -->
<g id="node4" class="node"><title>3</title>
<path fill="none" stroke="#5682d8" stroke-width="2" d="M449.378,-180C449.378,-180 419.378,-180 419.378,-180 413.378,-180 407.378,-174 407.378,-168 407.378,-168 407.378,-156 407.378,-156 407.378,-150 413.378,-144 419.378,-144 419.378,-144 449.378,-144 449.378,-144 455.378,-144 461.378,-150 461.378,-156 461.378,-156 461.378,-168 461.378,-168 461.378,-174 455.378,-180 449.378,-180"/>
<text text-anchor="middle" x="434.378" y="-159.5" font-family="sans" font-size="10.00">FastQC</text>
</g>
<!-- 3&#45;&gt;0 -->
<g id="edge3" class="edge"><title>3&#45;&gt;0</title>
<path fill="none" stroke="grey" stroke-width="2" d="M430.506,-143.673C425.254,-123.891 414.059,-91.7264 393.378,-72 367.368,-47.1912 328.224,-33.4196 299.497,-26.1776"/>
<polygon fill="grey" stroke="grey" points="299.966,-22.6919 289.428,-23.7966 298.355,-29.5041 299.966,-22.6919"/>
</g>
<!-- 3&#45;&gt;10 -->
<g id="edge21" class="edge"><title>3&#45;&gt;10</title>
<path fill="none" stroke="grey" stroke-width="2" d="M407.125,-151.414C372.092,-139.09 311.134,-117.648 272.055,-103.902"/>
<polygon fill="grey" stroke="grey" points="273.215,-100.599 262.62,-100.583 270.892,-107.203 273.215,-100.599"/>
</g>
<!-- 4&#45;&gt;0 -->
<g id="edge4" class="edge"><title>4&#45;&gt;0</title>
<path fill="none" stroke="grey" stroke-width="2" d="M255.798,-225.4C278.545,-217.947 308.085,-204.097 322.378,-180 348.892,-135.299 311.522,-76.8668 284.945,-44.1008"/>
<polygon fill="grey" stroke="grey" points="287.564,-41.7768 278.466,-36.3474 282.193,-46.2653 287.564,-41.7768"/>
</g>
<!-- 4&#45;&gt;2 -->
<g id="edge12" class="edge"><title>4&#45;&gt;2</title>
<path fill="none" stroke="grey" stroke-width="2" d="M213.266,-215.697C207.51,-207.474 200.516,-197.483 194.173,-188.421"/>
<polygon fill="grey" stroke="grey" points="196.953,-186.29 188.351,-180.104 191.218,-190.304 196.953,-186.29"/>
</g>
<!-- 4&#45;&gt;10 -->
<g id="edge22" class="edge"><title>4&#45;&gt;10</title>
<path fill="none" stroke="grey" stroke-width="2" d="M226.584,-215.871C228.289,-191.67 231.42,-147.211 233.449,-118.393"/>
<polygon fill="grey" stroke="grey" points="236.956,-118.41 234.168,-108.189 229.974,-117.919 236.956,-118.41"/>
</g>
<!-- 5 -->
<g id="node6" class="node"><title>5</title>
<path fill="none" stroke="#70d856" stroke-width="2" d="M378.628,-252C378.628,-252 302.128,-252 302.128,-252 296.128,-252 290.128,-246 290.128,-240 290.128,-240 290.128,-228 290.128,-228 290.128,-222 296.128,-216 302.128,-216 302.128,-216 378.628,-216 378.628,-216 384.628,-216 390.628,-222 390.628,-228 390.628,-228 390.628,-240 390.628,-240 390.628,-246 384.628,-252 378.628,-252"/>
<text text-anchor="middle" x="340.378" y="-237" font-family="sans" font-size="10.00">GUNZIP</text>
<text text-anchor="middle" x="340.378" y="-226" font-family="sans" font-size="10.00">sample: 16S0529</text>
</g>
<!-- 5&#45;&gt;0 -->
<g id="edge5" class="edge"><title>5&#45;&gt;0</title>
<path fill="none" stroke="grey" stroke-width="2" d="M343.824,-215.542C349.022,-184.288 355.595,-117.775 328.378,-72 320.884,-59.3962 309.205,-48.5657 297.742,-40.041"/>
<polygon fill="grey" stroke="grey" points="299.691,-37.1329 289.496,-34.2489 295.668,-42.861 299.691,-37.1329"/>
</g>
<!-- 7 -->
<g id="node8" class="node"><title>7</title>
<path fill="none" stroke="#ced856" stroke-width="2" d="M301.378,-180C301.378,-180 271.378,-180 271.378,-180 265.378,-180 259.378,-174 259.378,-168 259.378,-168 259.378,-156 259.378,-156 259.378,-150 265.378,-144 271.378,-144 271.378,-144 301.378,-144 301.378,-144 307.378,-144 313.378,-150 313.378,-156 313.378,-156 313.378,-168 313.378,-168 313.378,-174 307.378,-180 301.378,-180"/>
<text text-anchor="middle" x="286.378" y="-159.5" font-family="sans" font-size="10.00">kraken</text>
</g>
<!-- 5&#45;&gt;7 -->
<g id="edge17" class="edge"><title>5&#45;&gt;7</title>
<path fill="none" stroke="grey" stroke-width="2" d="M327.03,-215.697C320.621,-207.389 312.82,-197.277 305.772,-188.141"/>
<polygon fill="grey" stroke="grey" points="308.452,-185.884 299.573,-180.104 302.91,-190.16 308.452,-185.884"/>
</g>
<!-- 6 -->
<g id="node7" class="node"><title>6</title>
<path fill="none" stroke="#d88556" stroke-width="2" d="M472.628,-468C472.628,-468 396.128,-468 396.128,-468 390.128,-468 384.128,-462 384.128,-456 384.128,-456 384.128,-444 384.128,-444 384.128,-438 390.128,-432 396.128,-432 396.128,-432 472.628,-432 472.628,-432 478.628,-432 484.628,-438 484.628,-444 484.628,-444 484.628,-456 484.628,-456 484.628,-462 478.628,-468 472.628,-468"/>
<text text-anchor="middle" x="434.378" y="-453" font-family="sans" font-size="10.00">dataset_link</text>
<text text-anchor="middle" x="434.378" y="-442" font-family="sans" font-size="10.00">sample: 16S0529</text>
</g>
<!-- 6&#45;&gt;0 -->
<g id="edge6" class="edge"><title>6&#45;&gt;0</title>
<path fill="none" stroke="grey" stroke-width="2" d="M445.774,-431.899C461.884,-406.023 489.378,-354.852 489.378,-307 489.378,-307 489.378,-307 489.378,-161 489.378,-72.7119 364.433,-37.2666 299.937,-24.8512"/>
<polygon fill="grey" stroke="grey" points="300.227,-21.346 289.76,-22.9866 298.965,-28.2314 300.227,-21.346"/>
</g>
<!-- 6&#45;&gt;3 -->
<g id="edge14" class="edge"><title>6&#45;&gt;3</title>
<path fill="none" stroke="grey" stroke-width="2" d="M434.378,-431.966C434.378,-384.291 434.378,-249.185 434.378,-190.63"/>
<polygon fill="grey" stroke="grey" points="437.878,-190.306 434.378,-180.306 430.878,-190.306 437.878,-190.306"/>
</g>
<!-- 9 -->
<g id="node10" class="node"><title>9</title>
<path fill="none" stroke="#56d86b" stroke-width="2" d="M213.378,-396C213.378,-396 177.378,-396 177.378,-396 171.378,-396 165.378,-390 165.378,-384 165.378,-384 165.378,-372 165.378,-372 165.378,-366 171.378,-360 177.378,-360 177.378,-360 213.378,-360 213.378,-360 219.378,-360 225.378,-366 225.378,-372 225.378,-372 225.378,-384 225.378,-384 225.378,-390 219.378,-396 213.378,-396"/>
<text text-anchor="middle" x="195.378" y="-375.5" font-family="sans" font-size="10.00">Trimming</text>
</g>
<!-- 6&#45;&gt;9 -->
<g id="edge19" class="edge"><title>6&#45;&gt;9</title>
<path fill="none" stroke="grey" stroke-width="2" d="M383.984,-434.24C339.702,-421.271 276.13,-402.651 235.293,-390.691"/>
<polygon fill="grey" stroke="grey" points="236.259,-387.327 225.679,-387.875 234.292,-394.044 236.259,-387.327"/>
</g>
<!-- 7&#45;&gt;0 -->
<g id="edge7" class="edge"><title>7&#45;&gt;0</title>
<path fill="none" stroke="grey" stroke-width="2" d="M283.509,-143.937C280.494,-126.021 275.612,-97.0286 271.378,-72 269.955,-63.5885 268.401,-54.4268 266.991,-46.1231"/>
<polygon fill="grey" stroke="grey" points="270.428,-45.4572 265.302,-36.1849 263.527,-46.6299 270.428,-45.4572"/>
</g>
<!-- 7&#45;&gt;10 -->
<g id="edge23" class="edge"><title>7&#45;&gt;10</title>
<path fill="none" stroke="grey" stroke-width="2" d="M273.771,-143.697C267.781,-135.474 260.502,-125.483 253.899,-116.421"/>
<polygon fill="grey" stroke="grey" points="256.557,-114.126 247.84,-108.104 250.9,-118.248 256.557,-114.126"/>
</g>
<!-- 8&#45;&gt;0 -->
<g id="edge8" class="edge"><title>8&#45;&gt;0</title>
<path fill="none" stroke="grey" stroke-width="2" d="M114.074,-73.6382C147.436,-61.347 193.765,-44.2784 225.721,-32.5051"/>
<polygon fill="grey" stroke="grey" points="226.974,-35.7738 235.147,-29.0325 224.554,-29.2054 226.974,-35.7738"/>
</g>
<!-- 9&#45;&gt;0 -->
<g id="edge9" class="edge"><title>9&#45;&gt;0</title>
<path fill="none" stroke="grey" stroke-width="2" d="M165.222,-369.788C110.941,-354.81 2.37806,-314.87 2.37806,-235 2.37806,-235 2.37806,-235 2.37806,-161 2.37806,-120.553 -7.13419,-100.688 21.3781,-72 49.5108,-43.6939 164.346,-28.5167 224.78,-22.3513"/>
<polygon fill="grey" stroke="grey" points="225.439,-25.8033 235.047,-21.3374 224.751,-18.8372 225.439,-25.8033"/>
</g>
<!-- 9&#45;&gt;1 -->
<g id="edge11" class="edge"><title>9&#45;&gt;1</title>
<path fill="none" stroke="grey" stroke-width="2" d="M188.21,-359.697C184.944,-351.813 181.004,-342.304 177.376,-333.546"/>
<polygon fill="grey" stroke="grey" points="180.525,-332.003 173.464,-324.104 174.058,-334.683 180.525,-332.003"/>
</g>
<!-- 9&#45;&gt;4 -->
<g id="edge15" class="edge"><title>9&#45;&gt;4</title>
<path fill="none" stroke="grey" stroke-width="2" d="M198.997,-359.871C204.132,-335.564 213.585,-290.819 219.671,-262.013"/>
<polygon fill="grey" stroke="grey" points="223.104,-262.697 221.747,-252.189 216.255,-261.25 223.104,-262.697"/>
</g>
<!-- 10&#45;&gt;0 -->
<g id="edge10" class="edge"><title>10&#45;&gt;0</title>
<path fill="none" stroke="grey" stroke-width="2" d="M242.052,-71.6966C245.093,-63.8132 248.761,-54.3042 252.139,-45.5464"/>
<polygon fill="grey" stroke="grey" points="255.447,-46.6939 255.781,-36.1043 248.916,-44.1748 255.447,-46.6939"/>
</g>
</g>
</svg>
